<?xml version="1.0" standalone="no"?>
<!DOCTYPE svg PUBLIC "-//W3C//DTD SVG 20010904//EN"
 "http://www.w3.org/TR/2001/REC-SVG-20010904/DTD/svg10.dtd">
<svg version="1.0" xmlns="http://www.w3.org/2000/svg"
 width="1134.000000pt" height="1134.000000pt" viewBox="0 0 1134.000000 1134.000000"
 preserveAspectRatio="xMidYMid meet">
<metadata>
Created by potrace 1.11, written by Peter Selinger 2001-2013
</metadata>
<g transform="translate(0.000000,1134.000000) scale(0.100000,-0.100000)"
fill="#000000" stroke="none">
<path d="M5740 8998 c-124 -44 -252 -90 -285 -102 -33 -13 -116 -43 -183 -66
l-124 -43 -67 -91 c-37 -50 -112 -152 -166 -226 -105 -145 -177 -242 -185
-250 -3 -3 -9 -13 -15 -22 -5 -10 -52 -75 -104 -145 -156 -212 -554 -755 -581
-793 -8 -12 -34 -47 -57 -78 -34 -46 -43 -66 -44 -102 -1 -25 -3 -74 -4 -110
-3 -64 -11 -300 -20 -576 l-5 -142 92 -68 c51 -37 134 -98 183 -134 137 -101
686 -502 723 -529 l32 -23 148 52 c81 28 156 55 167 60 11 5 126 46 255 91
129 45 242 88 250 95 8 7 67 85 130 173 64 89 120 158 127 156 18 -6 512 -369
508 -373 -2 -2 -145 -4 -318 -4 -172 0 -318 -3 -323 -6 -11 -7 -87 -118 -335
-487 l-155 -230 1 -212 0 -213 -1560 0 -1560 0 0 213 1 212 -101 150 c-56 83
-140 206 -187 275 -47 69 -111 164 -144 211 l-58 87 -641 0 -640 0 -108 -161
c-60 -89 -169 -250 -242 -357 l-134 -195 0 -1035 -1 -1035 28 -42 c25 -38 111
-165 250 -368 31 -44 89 -129 130 -190 42 -60 77 -112 78 -113 2 -3 1045 -5
1230 -3 58 1 33 -27 249 291 66 96 158 232 205 301 l86 126 -1 212 c0 137 3
211 10 212 5 1 708 2 1560 3 l1550 1 0 -215 0 -215 90 -132 c49 -73 159 -235
244 -360 l155 -228 638 1 639 1 149 219 c82 120 192 283 244 361 l96 141 2
982 3 981 55 -40 c30 -22 60 -44 65 -48 6 -5 118 -87 250 -183 132 -96 242
-177 245 -180 3 -3 51 -39 108 -79 153 -109 147 -103 132 -131 -10 -18 -166
-234 -223 -307 -10 -14 -12 -45 -21 -328 -14 -405 -17 -491 -20 -519 -5 -38
-8 -34 279 -243 240 -175 321 -234 599 -438 82 -61 154 -109 160 -107 16 4
248 86 406 142 74 27 196 70 271 97 l136 48 119 163 c66 90 129 175 141 190
13 15 23 30 23 34 0 4 6 13 13 20 7 7 73 96 146 198 74 102 143 194 153 206
10 11 16 22 14 25 -2 2 -6 20 -9 39 -3 19 -8 44 -10 55 -9 39 -20 120 -19 128
1 4 -5 10 -13 13 -8 4 -15 10 -15 14 0 5 73 156 161 337 89 180 204 416 256
523 52 107 138 282 190 387 52 106 92 197 88 202 -5 10 -89 72 -635 471 -146
107 -267 196 -270 199 -3 3 -12 11 -21 16 -9 6 -35 23 -57 39 -41 28 -42 28
-84 13 -185 -67 -311 -112 -358 -128 -30 -10 -136 -47 -235 -83 l-180 -64 -83
-113 c-46 -63 -89 -122 -97 -131 -8 -10 -26 -36 -41 -58 -15 -22 -29 -40 -33
-40 -3 0 -63 42 -132 93 -69 50 -166 121 -215 157 -49 36 -134 99 -190 140
-56 41 -112 82 -124 90 -12 8 -70 51 -129 95 -60 44 -137 101 -172 126 -35 25
-208 152 -384 280 -176 129 -421 309 -545 399 -124 90 -227 167 -230 170 -3 3
-27 21 -55 40 -27 19 -51 38 -53 42 -2 4 -10 8 -18 8 -8 0 -14 3 -14 8 0 4
-17 18 -38 32 -20 14 -39 27 -42 30 -3 3 -42 32 -87 64 -46 33 -83 63 -83 67
0 4 10 20 23 36 13 15 45 60 72 98 27 39 53 75 57 80 27 33 76 103 85 120 6
11 14 108 17 215 3 107 8 260 11 340 14 356 15 326 -14 343 -14 9 -37 25 -51
36 -36 29 -639 471 -735 538 -44 31 -82 59 -85 63 -3 3 -34 26 -70 51 l-65 46
-225 -79z"/>
</g>
</svg>
